<svg xmlns="http://www.w3.org/2000/svg" xmlns:xlink="http://www.w3.org/1999/xlink" viewBox="0 0 268.06 310.55"><defs><style>.cls-1,.cls-3,.cls-4,.cls-6{fill:none;}.cls-2{isolation:isolate;}.cls-3,.cls-4{stroke:#fff;}.cls-3{stroke-width:3px;}.cls-4,.cls-6{stroke-miterlimit:10;}.cls-4{stroke-width:9px;}.cls-5{fill:#ecb442;}.cls-6{stroke:#26120b;stroke-width:6.34px;}.cls-7{fill:#26130b;}.cls-8{fill:#26120b;}.cls-9{fill:#f4d752;}.cls-10{clip-path:url(#clip-path);}.cls-11{fill:#351309;mix-blend-mode:multiply;opacity:0.25;}</style><clipPath id="clip-path" transform="translate(-164.36 -171.26)"><path class="cls-1" d="M312,270c4.5,9.6,3,50.4,3,50.4l-2.1,27,13.5,33,9.6,41.7-1.5,32.1-19.2,20.4-25.8,2.7-37.73-6.38c1.79.34,31,5.39,49.5-15.29,12.87-14.38,22.58-36.38,13-60.38s-51-37.8-49.43-41.78c1.43-4.79,8.56-4.78,14.85-8.09,12.63-6.67,40.88-37,11.25-96.49-1.61-3.19,3.83-1.09,5.74,0,5.1,3.45,5.23,4,5.23,4Z"/></clipPath></defs><g class="cls-2"><g id="Layer_2" data-name="Layer 2"><path class="cls-3" d="M324.15,408.61l20.76,2.52-9.59-38.79s42.93.52,44.36-2.21-21.68-43-21.68-43,59.67-28.06,69.22-30.38c-1.71-9.26-20.4-65.55-24.38-69.36-24.13,7.75-95,70.28-98.3,84.46,8.29,8.51,47.5,43.33,47.5,43.33s-34.15,2.58-36.2,5c1.31,4.78,15.27,37.77,15,38.67s-10.8.25-10.8.25Z" transform="translate(-164.36 -171.26)"/><path class="cls-3" d="M324.15,408.61l20.76,2.52-9.59-38.79s42.93.52,44.36-2.21-21.68-43-21.68-43,59.67-28.06,69.22-30.38c-1.71-9.26-20.4-65.55-24.38-69.36-24.13,7.75-95,70.28-98.3,84.46,8.29,8.51,47.5,43.33,47.5,43.33s-34.15,2.58-36.2,5c1.31,4.78,15.27,37.77,15,38.67s-10.8.25-10.8.25Z" transform="translate(-164.36 -171.26)"/><path class="cls-3" d="M324.15,408.61l20.76,2.52-9.59-38.79s42.93.52,44.36-2.21-21.68-43-21.68-43,59.67-28.06,69.22-30.38c-1.71-9.26-20.4-65.55-24.38-69.36-24.13,7.75-95,70.28-98.3,84.46,8.29,8.51,47.5,43.33,47.5,43.33s-34.15,2.58-36.2,5c1.31,4.78,15.27,37.77,15,38.67s-10.8.25-10.8.25Z" transform="translate(-164.36 -171.26)"/><path class="cls-3" d="M336.08,371.93c4.32,27.78-3.53-6.34-17.48,11.1l4.5,25.87h21.15Z" transform="translate(-164.36 -171.26)"/><path class="cls-3" d="M213.83,268.38s-23.57-63.83-5.92-90.81c26.36,14.08,37.76,81.64,36.93,87.5" transform="translate(-164.36 -171.26)"/><path class="cls-3" d="M212,269.07c-8.84-24.92-21.33-69.28-6.71-93.24l1.62-2.54,2.53,1.48c22.86,13,33.74,59.26,37.08,84a34.17,34.17,0,0,1,.34,6.63l-4-.56a9.17,9.17,0,0,0,0-1.17c-2.48-22.94-15.26-71.83-36.43-83.26l4.15-1.06c-4,6-5.5,13.48-6.14,20.69-1.07,15.18,1.47,30.62,4.92,45.46,1.8,7.49,3.9,15,6.37,22.23L212,269.07Z" transform="translate(-164.36 -171.26)"/><path class="cls-3" d="M229.14,209.42s-14.7-16.58-25.34-15.86c1.73-10.12,5.2-13.4,5.2-13.4l11.27,10.41Z" transform="translate(-164.36 -171.26)"/><path class="cls-3" d="M308.86,262.82c2.2,5.05,6.83,16.64,7.78,28.47,1,12.44-3.81,45.21-4.06,50.54s3.92,16.85,7.37,23.62c2.95,5.8,20.82,55.37,16.5,77.47s-12.94,26.67-23.87,31-24.89,1.78-33.26.5-18.3-2.78-25.15-2.78-18,1.77-23.37,2.78-20.32.51-25.91-2.28-20.57-10.92-21.07-34.54,6.35-30,7.87-49,6.38-29.17,6.34-33.79c-30.4-21.1-29.88-32.71-26.53-46.21,1.05-4.29,5.45-12.19,6.21-13.73s1.15-5.33,2.67-15.24,10.55-21.08,10.55-21.08,10.65-11.68,20.57-16.76,30.23-9.14,39.37-8.88,10.66-.26,27.94,3.81a36.1,36.1,0,0,1,6.05,2c14.95-12.07,58.15-36.25,75.2-33.23C357.73,226.31,328.25,250,308.86,262.82Z" transform="translate(-164.36 -171.26)"/><path class="cls-3" d="M311.33,263.56a.68.68,0,0,0,.36-.71c.11.26.86,2,1,2.34a92.69,92.69,0,0,1,6.75,25.11c.77,9.81-.45,19.69-1.3,29.43-.65,7.49-1.92,15.57-2.31,22.92.79,7.22,3.81,14.25,6.95,20.83A110,110,0,0,1,327,373.9c6.76,19.64,17.33,52.23,12.56,72.47C335.84,463,329.55,472.09,313,478c-11.21,3.92-23.57,2.11-34.11.5-7.09-1-14.08-2.17-21.15-2.62s-13.71.62-20.68,1.66c-1,.21-4.2.68-5.23.91-5.88,1-11.59.66-17.42.12a42.39,42.39,0,0,1-9.85-2,42.14,42.14,0,0,1-11.91-7.64c-10.2-9.08-13.62-23-13-36.1a90.93,90.93,0,0,1,3.27-22.38c1.92-7.06,3.78-13.44,4.41-20.52a143.8,143.8,0,0,1,3.36-22c.87-4.25,2.64-8.92,3.11-13.07l1.82,3.45c-3.73-2.6-7.41-5.33-11-8.3-7.31-6.22-14.47-13.11-17.6-22.76-2.17-6.71-1.12-13.94.74-20.52a82.35,82.35,0,0,1,5.94-12.84l.35-.68c.09-.15,0-.07.05-.09a21.23,21.23,0,0,0,.62-2.81c.45-3,1.36-8.55,1.84-11.56,1.21-6.6,4.64-12.73,8.23-18.09a39.1,39.1,0,0,1,4.54-5.77c6.6-6.54,13.64-12.93,22.22-16.91A99.3,99.3,0,0,1,231.52,232,94.51,94.51,0,0,1,259,230.13a89.11,89.11,0,0,1,13.63,2.24c4.52,1.08,9.11,1.91,13.36,3.88l-2.78.37a169.41,169.41,0,0,1,17.68-11.75q9.07-5.35,18.57-10a173.37,173.37,0,0,1,19.52-8.14c7.52-2.43,15.32-4.75,23.43-3-2,22.71-30.08,46.26-47.93,58.46-.22.15-2.13,1.44-2.29,1.53s-.43-.13-.81-.2Zm-4.95-1.47c1.25-1.7,3.34-3,5.06-4.19,3.81-2.65,8.08-5.83,11.74-8.67,13.54-11,32.31-25.9,34.81-44l1.7,2.28c-6.33-.82-13.21,1.37-19.32,3.44a167.8,167.8,0,0,0-18.87,8.19c-12.62,6.46-25.27,13.72-36.2,22.67-4.37-2.08-9.21-2.94-13.91-3.92a82.68,82.68,0,0,0-12.79-1.85c-12.92-.86-26,1.66-38.27,5.75-10.27,3.15-18.33,10.5-25.69,18.1l-.9,1a58.2,58.2,0,0,0-8.4,14.92c-1.25,3.28-1.69,8.89-2.26,12.39-.46,2.61-.57,5.22-1.56,7.89-1.85,3.79-4.07,7.73-5.49,11.6-1.77,5.42-2.77,11.81-1.05,17.05,2.49,7.53,8.92,13.61,15.06,18.76,3.87,3.22,8.1,6.24,12.3,9.12a27.66,27.66,0,0,1-.71,6.69c-2.11,8.09-4.29,16-5.2,24.28-.3,2.14-.49,5-.73,7.1-.06.91-.33,2.87-.46,3.78-.82,6.12-2.68,12.38-4.22,18.05a82.53,82.53,0,0,0-3,20.41c-.2,6.66.34,13.48,3,19.51a31.41,31.41,0,0,0,15.29,15.76c2.85,1.45,5.77,1.69,9,2.14,5.56.54,11.41.82,16.84-.34,10.94-1.94,22.4-3.34,33.52-1.62,9.49,1,19.06,3.16,28.41,3.83,6.85.45,13.34-.09,19.45-2.89,11.67-4.34,16.05-12.88,18.71-24.6,4.46-18.36-5.67-50.26-11.75-68.47a115.91,115.91,0,0,0-5.36-13.14c-2.73-6.77-5.67-13.9-5.75-21.39,1.23-12.37,3.16-24.55,4.06-36.91a94.37,94.37,0,0,0,.3-14,87.73,87.73,0,0,0-5.91-23.71c-.57-1.5-1.55-3.4-1.43-5Z" transform="translate(-164.36 -171.26)"/><path class="cls-3" d="M338.31,237s10-19.78,5.36-29.4c10.05-2.14,14.9-.74,14.9-.74l-6,14.93Z" transform="translate(-164.36 -171.26)"/><path class="cls-3" d="M301.89,252.92s3,3.16,7.41,12.58" transform="translate(-164.36 -171.26)"/><path class="cls-3" d="M301.89,252.92c4.26,2.75,6.84,7.41,9.22,11.74l-3.62,1.68c-1.82-4.43-3.8-9-5.6-13.42Z" transform="translate(-164.36 -171.26)"/><path class="cls-3" d="M220.33,362.52s18.91,47.93,4.18,53.89S195,389,192.93,372.68" transform="translate(-164.36 -171.26)"/><path class="cls-3" d="M220.33,362.52c1.28-.17,1.09.24,1.35.46,2.59,3.83,3.69,8.43,5.35,12.69,3.46,10.66,10.87,32.21,2,41.52-3.55,3.5-9.33,3.87-13.7,1.77-13.76-6.66-22.8-31.67-23.86-46.1l3-.37A82.07,82.07,0,0,0,198.66,386c3.48,8.45,7.86,17.28,14.25,23.7,2.84,2.78,6.61,5.32,10.41,3.78,5.79-2.86,3.43-16.91,2.68-22.58-.74-4.67-1.78-9.35-3-14-.94-4.1-2.52-8.06-3.28-12.2,0-.31-.08-.61-.11-.92s-.36-.5.69-1.24Z" transform="translate(-164.36 -171.26)"/><path class="cls-3" d="M263.2,360.87s-20.29,47.35-5.74,53.74,30.32-26.59,32.83-42.8" transform="translate(-164.36 -171.26)"/><path class="cls-3" d="M263.2,360.87c1,.76.62.91.65,1.25s-.08.61-.13.92c-.88,4.12-2.58,8-3.63,12.1-1.33,4.61-2.51,9.25-3.39,13.91-.91,5.66-3.69,19.61,2,22.64,3.76,1.63,7.59-.79,10.48-3.51,6.52-6.28,11.15-14.94,14.92-23.25a74.59,74.59,0,0,0,4.16-11.66c.19-1.08.42-1.22,2-1.46,1,.46,1.33.84,1.44,1.18-1.79,14.29-11.14,38.18-25.13,44.46-4.43,2-10.2,1.41-13.65-2.19-8.59-9.55-.59-30.89,3.18-41.44,1.78-4.22,3-8.78,5.71-12.53.26-.22.09-.63,1.36-.42Z" transform="translate(-164.36 -171.26)"/><path class="cls-4" d="M324.15,408.61l20.76,2.52-9.59-38.79s42.93.52,44.36-2.21-21.68-43-21.68-43,59.67-28.06,69.22-30.38c-1.71-9.26-20.4-65.55-24.38-69.36-24.13,7.75-95,70.28-98.3,84.46,8.29,8.51,47.5,43.33,47.5,43.33s-34.15,2.58-36.2,5c1.31,4.78,15.27,37.77,15,38.67s-10.8.25-10.8.25Z" transform="translate(-164.36 -171.26)"/><path class="cls-5" d="M324.15,408.61l20.76,2.52-9.59-38.79s42.93.52,44.36-2.21-21.68-43-21.68-43,59.67-28.06,69.22-30.38c-1.71-9.26-20.4-65.55-24.38-69.36-24.13,7.75-95,70.28-98.3,84.46,8.29,8.51,47.5,43.33,47.5,43.33s-34.15,2.58-36.2,5c1.31,4.78,15.27,37.77,15,38.67s-10.8.25-10.8.25Z" transform="translate(-164.36 -171.26)"/><path class="cls-6" d="M324.15,408.61l20.76,2.52-9.59-38.79s42.93.52,44.36-2.21-21.68-43-21.68-43,59.67-28.06,69.22-30.38c-1.71-9.26-20.4-65.55-24.38-69.36-24.13,7.75-95,70.28-98.3,84.46,8.29,8.51,47.5,43.33,47.5,43.33s-34.15,2.58-36.2,5c1.31,4.78,15.27,37.77,15,38.67s-10.8.25-10.8.25Z" transform="translate(-164.36 -171.26)"/><path class="cls-7" d="M336.08,371.93c4.32,27.78-3.53-6.34-17.48,11.1l4.5,25.87h21.15Z" transform="translate(-164.36 -171.26)"/><path class="cls-5" d="M213.83,268.38s-23.57-63.83-5.92-90.81c26.36,14.08,37.76,81.64,36.93,87.5" transform="translate(-164.36 -171.26)"/><path class="cls-8" d="M212,269.07c-8.84-24.92-21.33-69.28-6.71-93.24l1.62-2.54,2.53,1.48c22.86,13,33.74,59.26,37.08,84a34.17,34.17,0,0,1,.34,6.63l-4-.56a9.17,9.17,0,0,0,0-1.17c-2.48-22.94-15.26-71.83-36.43-83.26l4.15-1.06c-4,6-5.5,13.48-6.14,20.69-1.07,15.18,1.47,30.62,4.92,45.46,1.8,7.49,3.9,15,6.37,22.23L212,269.07Z" transform="translate(-164.36 -171.26)"/><path class="cls-8" d="M229.14,209.42s-14.7-16.58-25.34-15.86c1.73-10.12,5.2-13.4,5.2-13.4l11.27,10.41Z" transform="translate(-164.36 -171.26)"/><path class="cls-9" d="M308.86,262.82c2.2,5.05,6.83,16.64,7.78,28.47,1,12.44-3.81,45.21-4.06,50.54s3.92,16.85,7.37,23.62c2.95,5.8,20.82,55.37,16.5,77.47s-12.94,26.67-23.87,31-24.89,1.78-33.26.5-18.3-2.78-25.15-2.78-18,1.77-23.37,2.78-20.32.51-25.91-2.28-20.57-10.92-21.07-34.54,6.35-30,7.87-49,6.38-29.17,6.34-33.79c-30.4-21.1-29.88-32.71-26.53-46.21,1.05-4.29,5.45-12.19,6.21-13.73s1.15-5.33,2.67-15.24,10.55-21.08,10.55-21.08,10.65-11.68,20.57-16.76,30.23-9.14,39.37-8.88,10.66-.26,27.94,3.81a36.1,36.1,0,0,1,6.05,2c14.95-12.07,58.15-36.25,75.2-33.23C357.73,226.31,328.25,250,308.86,262.82Z" transform="translate(-164.36 -171.26)"/><path class="cls-8" d="M311.33,263.56a.68.68,0,0,0,.36-.71c.11.26.86,2,1,2.34a92.69,92.69,0,0,1,6.75,25.11c.77,9.81-.45,19.69-1.3,29.43-.65,7.49-1.92,15.57-2.31,22.92.79,7.22,3.81,14.25,6.95,20.83A110,110,0,0,1,327,373.9c6.76,19.64,17.33,52.23,12.56,72.47C335.84,463,329.55,472.09,313,478c-11.21,3.92-23.57,2.11-34.11.5-7.09-1-14.08-2.17-21.15-2.62s-13.71.62-20.68,1.66c-1,.21-4.2.68-5.23.91-5.88,1-11.59.66-17.42.12a42.39,42.39,0,0,1-9.85-2,42.14,42.14,0,0,1-11.91-7.64c-10.2-9.08-13.62-23-13-36.1a90.93,90.93,0,0,1,3.27-22.38c1.92-7.06,3.78-13.44,4.41-20.52a143.8,143.8,0,0,1,3.36-22c.87-4.25,2.64-8.92,3.11-13.07l1.82,3.45c-3.73-2.6-7.41-5.33-11-8.3-7.31-6.22-14.47-13.11-17.6-22.76-2.17-6.71-1.12-13.94.74-20.52a82.35,82.35,0,0,1,5.94-12.84l.35-.68c.09-.15,0-.07.05-.09a21.23,21.23,0,0,0,.62-2.81c.45-3,1.36-8.55,1.84-11.56,1.21-6.6,4.64-12.73,8.23-18.09a39.1,39.1,0,0,1,4.54-5.77c6.6-6.54,13.64-12.93,22.22-16.91A99.3,99.3,0,0,1,231.52,232,94.51,94.51,0,0,1,259,230.13a89.11,89.11,0,0,1,13.63,2.24c4.52,1.08,9.11,1.91,13.36,3.88l-2.78.37a169.41,169.41,0,0,1,17.68-11.75q9.07-5.35,18.57-10a173.37,173.37,0,0,1,19.52-8.14c7.52-2.43,15.32-4.75,23.43-3-2,22.71-30.08,46.26-47.93,58.46-.22.15-2.13,1.44-2.29,1.53s-.43-.13-.81-.2Zm-4.95-1.47c1.25-1.7,3.34-3,5.06-4.19,3.81-2.65,8.08-5.83,11.74-8.67,13.54-11,32.31-25.9,34.81-44l1.7,2.28c-6.33-.82-13.21,1.37-19.32,3.44a167.8,167.8,0,0,0-18.87,8.19c-12.62,6.46-25.27,13.72-36.2,22.67-4.37-2.08-9.21-2.94-13.91-3.92a82.68,82.68,0,0,0-12.79-1.85c-12.92-.86-26,1.66-38.27,5.75-10.27,3.15-18.33,10.5-25.69,18.1l-.9,1a58.2,58.2,0,0,0-8.4,14.92c-1.25,3.28-1.69,8.89-2.26,12.39-.46,2.61-.57,5.22-1.56,7.89-1.85,3.79-4.07,7.73-5.49,11.6-1.77,5.42-2.77,11.81-1.05,17.05,2.49,7.53,8.92,13.61,15.06,18.76,3.87,3.22,8.1,6.24,12.3,9.12a27.66,27.66,0,0,1-.71,6.69c-2.11,8.09-4.29,16-5.2,24.28-.3,2.14-.49,5-.73,7.1-.06.91-.33,2.87-.46,3.78-.82,6.12-2.68,12.38-4.22,18.05a82.53,82.53,0,0,0-3,20.41c-.2,6.66.34,13.48,3,19.51a31.41,31.41,0,0,0,15.29,15.76c2.85,1.45,5.77,1.69,9,2.14,5.56.54,11.41.82,16.84-.34,10.94-1.94,22.4-3.34,33.52-1.62,9.49,1,19.06,3.16,28.41,3.83,6.85.45,13.34-.09,19.45-2.89,11.67-4.34,16.05-12.88,18.71-24.6,4.46-18.36-5.67-50.26-11.75-68.47a115.91,115.91,0,0,0-5.36-13.14c-2.73-6.77-5.67-13.9-5.75-21.39,1.23-12.37,3.16-24.55,4.06-36.91a94.37,94.37,0,0,0,.3-14,87.73,87.73,0,0,0-5.91-23.71c-.57-1.5-1.55-3.4-1.43-5Z" transform="translate(-164.36 -171.26)"/><path class="cls-8" d="M338.31,237s10-19.78,5.36-29.4c10.05-2.14,14.9-.74,14.9-.74l-6,14.93Z" transform="translate(-164.36 -171.26)"/><path class="cls-8" d="M301.89,252.92c4.26,2.75,6.84,7.41,9.22,11.74l-3.62,1.68c-1.82-4.43-3.8-9-5.6-13.42Z" transform="translate(-164.36 -171.26)"/><path class="cls-8" d="M220.33,362.52c1.28-.17,1.09.24,1.35.46,2.59,3.83,3.69,8.43,5.35,12.69,3.46,10.66,10.87,32.21,2,41.52-3.55,3.5-9.33,3.87-13.7,1.77-13.76-6.66-22.8-31.67-23.86-46.1l3-.37A82.07,82.07,0,0,0,198.66,386c3.48,8.45,7.86,17.28,14.25,23.7,2.84,2.78,6.61,5.32,10.41,3.78,5.79-2.86,3.43-16.91,2.68-22.58-.74-4.67-1.78-9.35-3-14-.94-4.1-2.52-8.06-3.28-12.2,0-.31-.08-.61-.11-.92s-.36-.5.69-1.24Z" transform="translate(-164.36 -171.26)"/><path class="cls-8" d="M263.2,360.87c1,.76.62.91.65,1.25s-.08.61-.13.92c-.88,4.12-2.58,8-3.63,12.1-1.33,4.61-2.51,9.25-3.39,13.91-.91,5.66-3.69,19.61,2,22.64,3.76,1.63,7.59-.79,10.48-3.51,6.52-6.28,11.15-14.94,14.92-23.25a74.59,74.59,0,0,0,4.16-11.66c.19-1.08.42-1.22,2-1.46,1,.46,1.33.84,1.44,1.18-1.79,14.29-11.14,38.18-25.13,44.46-4.43,2-10.2,1.41-13.65-2.19-8.59-9.55-.59-30.89,3.18-41.44,1.78-4.22,3-8.78,5.71-12.53.26-.22.09-.63,1.36-.42Z" transform="translate(-164.36 -171.26)"/></g><g id="Layer_4" data-name="Layer 4"><g class="cls-10"><path class="cls-11" d="M174.18,310.83c1-4.12,5.26-11.74,6-13.2s1.1-5.14,2.57-14.68,10.15-20.3,10.15-20.3,10.27-11.25,19.81-16.14,29-10.47,37.84-10.22,10.82-.65,27.45,3.26a31.44,31.44,0,0,1,6.83,2.49c.39.19,1.91-1.65,2.42-1.82,5.56,3,13.59,11.75,14.33,12.75s4.54,10.79,5.33,12.57A101.81,101.81,0,0,1,314,294.2c1,12-3.67,43.54-3.91,48.67s3.76,16.22,7.09,22.75c2.85,5.58,20.06,53.32,15.9,74.6s-11.8,25.8-22.32,29.95-24.64,1.6-32.71.38-17.61-2.69-24.22-2.69-17.36,1.71-22.5,2.69-19.57.49-24.95-2.2-19.81-10.52-20.3-33.26,6.12-28.87,7.58-47.21,6.15-28.09,6.12-32.53C170.46,335,171,323.85,174.18,310.83Z" transform="translate(-164.36 -171.26)"/></g></g><g id="Layer_3" data-name="Layer 3"><path class="cls-8" d="M282.07,295.12c0,9.45-6.64,17.1-14.85,17.1s-14.85-7.65-14.85-17.1S282.07,285.68,282.07,295.12Z" transform="translate(-164.36 -171.26)"/><path class="cls-8" d="M215.4,294.3c0,9.44-6.65,17.1-14.85,17.1s-14.85-7.66-14.85-17.1S215.4,284.86,215.4,294.3Z" transform="translate(-164.36 -171.26)"/><path class="cls-8" d="M229.8,318.6c-.55,0-5.93-5.35-5.25-6.75s10.17-1.05,10.74.35S230.35,318.59,229.8,318.6Z" transform="translate(-164.36 -171.26)"/></g></g></svg>